<svg id="SvgjsSvg1652" width="960.5" height="1262" xmlns="http://www.w3.org/2000/svg" version="1.1" xmlns:xlink="http://www.w3.org/1999/xlink" xmlns:svgjs="http://svgjs.com/svgjs"><defs id="SvgjsDefs1653"></defs><rect id="SvgjsRect1654" width="960.5" height="1262" fill="#ffffff"></rect><g id="SvgjsG1655" transform="translate(180.66666793823242,521.943410551597)"><path id="SvgjsPath1656" d="M 0 0L 657.8333320617676 0L 0 0M 0 89L 657.8333320617676 89L 0 89Z" stroke-dasharray="3,4" stroke="#323232" stroke-width="2" fill-opacity="1" fill="#ffffff"></path><path id="SvgjsPath1657" d="M 0 0L 657.8333320617676 0L 657.8333320617676 89L 0 89L 0 0Z" stroke="none" fill="none"></path><g id="SvgjsG1658"><text id="SvgjsText1659" font-family="微软雅黑" text-anchor="middle" font-size="17px" width="0" fill="#323232" font-weight="700" align="middle" anchor="middle" family="微软雅黑" size="17px" weight="700" font-style="" y="31.45" transform="rotate(0)"></text></g></g><g id="SvgjsG1660" transform="translate(194.5,438.3333282470703)"><path id="SvgjsPath1661" d="M 18 0Q 9 0 9 9L 9 119.5Q 9 128.5 0 128.5Q 9 128.5 9 137.5L 9 248Q 9 257 18 257" stroke="#323232" stroke-width="2" fill="none"></path><path id="SvgjsPath1662" d="M 103 257Q 112 257 112 248L 112 137.5Q 112 128.5 121 128.5Q 112 128.5 112 119.5L 112 9Q 112 0 103 0" stroke="#323232" stroke-width="2" fill="none"></path><path id="SvgjsPath1663" d="M 0 0L 121 0L 121 257L 0 257Z" stroke="none" fill="none"></path><g id="SvgjsG1664"><text id="SvgjsText1665" font-family="微软雅黑" text-anchor="middle" font-size="17px" width="0" fill="#323232" font-weight="700" align="middle" anchor="middle" family="微软雅黑" size="17px" weight="700" font-style="" y="115.45" transform="rotate(0)"></text></g></g><g id="SvgjsG1666" transform="translate(658.1666641235352,546.943410551597)"><path id="SvgjsPath1667" d="M 0 0L 233.33333587646484 0L 233.33333587646484 39.66667175292969L 0 39.66667175292969Z" stroke="none" fill="none"></path><g id="SvgjsG1668"><text id="SvgjsText1669" font-family="微软雅黑" text-anchor="middle" font-size="17px" width="83" fill="#323232" font-weight="700" align="middle" anchor="middle" family="微软雅黑" size="17px" weight="700" font-style="" y="6.783335876464844" transform="rotate(0)"><tspan id="SvgjsTspan1670" dy="21" x="117"><tspan id="SvgjsTspan1671" style="text-decoration:;">Cron Task</tspan></tspan></text></g></g><g id="SvgjsG1672" transform="translate(215,446.227361168881)"><path id="SvgjsPath1673" d="M 0 0L 80 0L 80 69.42386831275721L 0 69.42386831275721Z" stroke="#323232" stroke-width="2" fill-opacity="1" fill="#ffffff"></path><g id="SvgjsG1674"><text id="SvgjsText1675" font-family="微软雅黑" text-anchor="middle" font-size="17px" width="60" fill="#323232" font-weight="700" align="middle" anchor="middle" family="微软雅黑" size="17px" weight="700" font-style="" y="21.661934156378603" transform="rotate(0)"><tspan id="SvgjsTspan1676" dy="21" x="40"><tspan id="SvgjsTspan1677" style="text-decoration:;">Service</tspan></tspan></text></g></g><g id="SvgjsG1678" transform="translate(138,557.3333282470703)"><path id="SvgjsPath1679" d="M 0 0L 67 0L 67 40L 0 40Z" stroke="none" fill="none"></path><g id="SvgjsG1680"><text id="SvgjsText1681" font-family="微软雅黑" text-anchor="middle" font-size="16px" width="48" fill="#323232" font-weight="700" align="middle" anchor="middle" family="微软雅黑" size="16px" weight="700" font-style="" y="-2.4" transform="rotate(0)"><tspan id="SvgjsTspan1682" dy="20" x="33.5"><tspan id="SvgjsTspan1683" style="text-decoration:;">IAM</tspan></tspan><tspan id="SvgjsTspan1684" dy="20" x="33.5"><tspan id="SvgjsTspan1685" style="text-decoration:;">微服务</tspan></tspan></text></g></g><g id="SvgjsG1686" transform="translate(641.5,450.60595944879475)"><path id="SvgjsPath1687" d="M 0 0L 294.5 0L 294.5 60.66667175292969L 0 60.66667175292969Z" stroke="none" fill="none"></path><g id="SvgjsG1688"><text id="SvgjsText1689" font-family="微软雅黑" text-anchor="middle" font-size="17px" width="111" fill="#323232" font-weight="700" align="middle" anchor="middle" family="微软雅黑" size="17px" weight="700" font-style="" y="17.283335876464843" transform="rotate(0)"><tspan id="SvgjsTspan1690" dy="21" x="147.5"><tspan id="SvgjsTspan1691" style="text-decoration:;">gRPC Service</tspan></tspan></text></g></g><g id="SvgjsG1692" transform="translate(134,25)"><path id="SvgjsPath1693" d="M 18 0Q 9 0 9 9L 9 54.666664123535156Q 9 63.666664123535156 0 63.666664123535156Q 9 63.666664123535156 9 72.66666412353516L 9 118.33332824707031Q 9 127.33332824707031 18 127.33332824707031" stroke="#006666" stroke-width="2" fill="none"></path><path id="SvgjsPath1694" d="M 709 127.33332824707031Q 718 127.33332824707031 718 118.33332824707031L 718 72.66666412353516Q 718 63.666664123535156 727 63.666664123535156Q 718 63.666664123535156 718 54.666664123535156L 718 9Q 718 0 709 0" stroke="#006666" stroke-width="2" fill="none"></path><path id="SvgjsPath1695" d="M 0 0L 727 0L 727 127.33332824707031L 0 127.33332824707031Z" stroke="none" fill="none"></path><g id="SvgjsG1696"><text id="SvgjsText1697" font-family="微软雅黑" text-anchor="middle" font-size="13px" width="0" fill="#323232" font-weight="400" align="middle" anchor="middle" family="微软雅黑" size="13px" weight="400" font-style="" y="53.71666412353515" transform="rotate(0)"></text></g></g><g id="SvgjsG1698" transform="translate(25,63.33332824707031)"><path id="SvgjsPath1699" d="M 0 0L 116 0L 116 50.66667175292969L 0 50.66667175292969Z" stroke="none" fill="none"></path><g id="SvgjsG1700"><text id="SvgjsText1701" font-family="微软雅黑" text-anchor="middle" font-size="17px" width="68" fill="#323232" font-weight="700" align="middle" anchor="middle" family="微软雅黑" size="17px" weight="700" font-style="" y="12.283335876464843" transform="rotate(0)"><tspan id="SvgjsTspan1702" dy="21" x="58"><tspan id="SvgjsTspan1703" style="text-decoration:;">应用接入</tspan></tspan></text></g></g><g id="SvgjsG1704" transform="translate(553.5,48.33332824707031)"><path id="SvgjsPath1705" d="M 0 0L 100 0L 100 65.66667175292969L 0 65.66667175292969Z" stroke="#000000" stroke-width="2" fill-opacity="1" fill="#ffffff"></path><g id="SvgjsG1706"><text id="SvgjsText1707" font-family="微软雅黑" text-anchor="middle" font-size="17px" width="35" fill="#323232" font-weight="400" align="middle" anchor="middle" family="微软雅黑" size="17px" weight="400" font-style="" y="19.783335876464843" transform="rotate(0)"><tspan id="SvgjsTspan1708" dy="21" x="50"><tspan id="SvgjsTspan1709" style="text-decoration:;">Web</tspan></tspan></text></g></g><g id="SvgjsG1710" transform="translate(289.5,48.33332824707031)"><path id="SvgjsPath1711" d="M 0 0L 109 0L 109 65.66667175292969L 0 65.66667175292969Z" stroke="#000000" stroke-width="2" fill-opacity="1" fill="#ffffff"></path><g id="SvgjsG1712"><text id="SvgjsText1713" font-family="微软雅黑" text-anchor="middle" font-size="17px" width="33" fill="#323232" font-weight="400" align="middle" anchor="middle" family="微软雅黑" size="17px" weight="400" font-style="" y="19.783335876464843" transform="rotate(0)"><tspan id="SvgjsTspan1714" dy="21" x="54.5"><tspan id="SvgjsTspan1715" style="text-decoration:;">APP</tspan></tspan></text></g></g><g id="SvgjsG1716" transform="translate(224.66666412353516,271.3333282470703)"><path id="SvgjsPath1717" d="M 0 0L 475.33333587646484 0L 475.33333587646484 45.100006103515625L 0 45.100006103515625Z" stroke="#323232" stroke-width="2" fill-opacity="1" fill="#ffffff"></path><g id="SvgjsG1718"><text id="SvgjsText1719" font-family="微软雅黑" text-anchor="middle" font-size="17px" width="103" fill="#323232" font-weight="700" align="middle" anchor="middle" family="微软雅黑" size="17px" weight="700" font-style="" y="9.500003051757812" transform="rotate(0)"><tspan id="SvgjsTspan1720" dy="21" x="238"><tspan id="SvgjsTspan1721" style="text-decoration:;">API Gateway</tspan></tspan></text></g></g><g id="SvgjsG1722" transform="translate(96,273.8833312988281)"><path id="SvgjsPath1723" d="M 0 0L 160 0L 160 40L 0 40Z" stroke="none" fill="none"></path><g id="SvgjsG1724"><text id="SvgjsText1725" font-family="微软雅黑" text-anchor="middle" font-size="17px" width="34" fill="#323232" font-weight="700" align="middle" anchor="middle" family="微软雅黑" size="17px" weight="700" font-style="" y="6.95" transform="rotate(0)"><tspan id="SvgjsTspan1726" dy="21" x="80"><tspan id="SvgjsTspan1727" style="text-decoration:;">网关</tspan></tspan></text></g></g><g id="SvgjsG1728" transform="translate(247.66666793823242,723.3333282470703)"><path id="SvgjsPath1729" d="M 18 0Q 9 0 9 8.866793644963606L 9 35.467174579854415Q 9 44.33396822481802 0 44.33396822481802Q 9 44.33396822481802 9 53.20076186978163L 9 79.80114280467244Q 9 88.66793644963604 18 88.66793644963604" stroke="#323232" stroke-width="2" fill="none"></path><path id="SvgjsPath1730" d="M 560.6666641235352 88.66793644963604Q 569.6666641235352 88.66793644963604 569.6666641235352 79.80114280467244L 569.6666641235352 53.20076186978163Q 569.6666641235352 44.33396822481802 578.6666641235352 44.33396822481802Q 569.6666641235352 44.33396822481802 569.6666641235352 35.467174579854415L 569.6666641235352 8.866793644963606Q 569.6666641235352 0 560.6666641235352 0" stroke="#323232" stroke-width="2" fill="none"></path><path id="SvgjsPath1731" d="M 0 0L 578.6666641235352 0L 578.6666641235352 88.66793644963604L 0 88.66793644963604Z" stroke="none" fill="none"></path><g id="SvgjsG1732"><text id="SvgjsText1733" font-family="微软雅黑" text-anchor="middle" font-size="13px" width="0" fill="#323232" font-weight="400" align="middle" anchor="middle" family="微软雅黑" size="13px" weight="400" font-style="" y="34.38396822481802" transform="rotate(0)"></text></g></g><g id="SvgjsG1734" transform="translate(125,716.3792306282671)"><path id="SvgjsPath1735" d="M 0 0L 131 0L 131 98.57486699053602L 0 98.57486699053602Z" stroke="none" fill="none"></path><g id="SvgjsG1736"><text id="SvgjsText1737" font-family="微软雅黑" text-anchor="middle" font-size="17px" width="68" fill="#323232" font-weight="700" align="middle" anchor="middle" family="微软雅黑" size="17px" weight="700" font-style="" y="36.237433495268014" transform="rotate(0)"><tspan id="SvgjsTspan1738" dy="21" x="65.5"><tspan id="SvgjsTspan1739" style="text-decoration:;">基础模块</tspan></tspan></text></g></g><g id="SvgjsG1740" transform="translate(36,263.5499954223633)"><path id="SvgjsPath1741" d="M 102 0Q 93 0 93 9L 93 325.72500228881836Q 93 334.72500228881836 80 334.72500228881836Q 93 334.72500228881836 93 343.72500228881836L 93 660.4500045776367Q 93 669.4500045776367 102 669.4500045776367" stroke="#323232" stroke-width="2" fill-opacity="1" fill="#ffffff"></path><path id="SvgjsPath1742" d="M 0 0L 102 0L 102 669.4500045776367L 0 669.4500045776367Z" stroke="none" fill="none"></path><g id="SvgjsG1743"><text id="SvgjsText1744" font-family="微软雅黑" text-anchor="end" font-size="17px" width="37" fill="#323232" font-weight="700" align="middle" anchor="end" family="微软雅黑" size="17px" weight="700" font-style="" y="321.67500228881835" transform="rotate(0)"><tspan id="SvgjsTspan1745" dy="21" x="75"><tspan id="SvgjsTspan1746" style="text-decoration:;">Qilin</tspan></tspan></text></g></g><g id="SvgjsG1747" transform="translate(671.9166679382324,637.77262357233)"><path id="SvgjsPath1748" d="M 0 0L 233.33333587646484 0L 233.33333587646484 39.66667175292969L 0 39.66667175292969Z" stroke="none" fill="none"></path><g id="SvgjsG1749"><text id="SvgjsText1750" font-family="微软雅黑" text-anchor="middle" font-size="17px" width="107" fill="#323232" font-weight="700" align="middle" anchor="middle" family="微软雅黑" size="17px" weight="700" font-style="" y="6.783335876464844" transform="rotate(0)"><tspan id="SvgjsTspan1751" dy="21" x="117"><tspan id="SvgjsTspan1752" style="text-decoration:;">GORM Mysql</tspan></tspan></text></g></g><g id="SvgjsG1753" transform="translate(215,531.7314763952184)"><path id="SvgjsPath1754" d="M 0 0L 80 0L 80 69.42386831275721L 0 69.42386831275721Z" stroke="#323232" stroke-width="2" fill-opacity="1" fill="#ffffff"></path><g id="SvgjsG1755"><text id="SvgjsText1756" font-family="微软雅黑" text-anchor="middle" font-size="17px" width="39" fill="#323232" font-weight="700" align="middle" anchor="middle" family="微软雅黑" size="17px" weight="700" font-style="" y="21.661934156378603" transform="rotate(0)"><tspan id="SvgjsTspan1757" dy="21" x="40"><tspan id="SvgjsTspan1758" style="text-decoration:;">Task</tspan></tspan></text></g></g><g id="SvgjsG1759" transform="translate(215,618.0154270125024)"><path id="SvgjsPath1760" d="M 0 0L 80 0L 80 69.42386831275721L 0 69.42386831275721Z" stroke="#323232" stroke-width="2" fill-opacity="1" fill="#ffffff"></path><g id="SvgjsG1761"><text id="SvgjsText1762" font-family="微软雅黑" text-anchor="middle" font-size="17px" width="24" fill="#323232" font-weight="700" align="middle" anchor="middle" family="微软雅黑" size="17px" weight="700" font-style="" y="21.661934156378603" transform="rotate(0)"><tspan id="SvgjsTspan1763" dy="21" x="40"><tspan id="SvgjsTspan1764" style="text-decoration:;">DB</tspan></tspan></text></g></g><g id="SvgjsG1765" transform="translate(394.5,438.3333282470703)"><path id="SvgjsPath1766" d="M 18 0Q 9 0 9 9L 9 119.5Q 9 128.5 0 128.5Q 9 128.5 9 137.5L 9 248Q 9 257 18 257" stroke="#323232" stroke-width="2" fill="none"></path><path id="SvgjsPath1767" d="M 103 257Q 112 257 112 248L 112 137.5Q 112 128.5 121 128.5Q 112 128.5 112 119.5L 112 9Q 112 0 103 0" stroke="#323232" stroke-width="2" fill="none"></path><path id="SvgjsPath1768" d="M 0 0L 121 0L 121 257L 0 257Z" stroke="none" fill="none"></path><g id="SvgjsG1769"><text id="SvgjsText1770" font-family="微软雅黑" text-anchor="middle" font-size="17px" width="0" fill="#323232" font-weight="700" align="middle" anchor="middle" family="微软雅黑" size="17px" weight="700" font-style="" y="115.45" transform="rotate(0)"></text></g></g><g id="SvgjsG1771" transform="translate(415,446.227361168881)"><path id="SvgjsPath1772" d="M 0 0L 80 0L 80 69.42386831275721L 0 69.42386831275721Z" stroke="#323232" stroke-width="2" fill-opacity="1" fill="#ffffff"></path><g id="SvgjsG1773"><text id="SvgjsText1774" font-family="微软雅黑" text-anchor="middle" font-size="17px" width="60" fill="#323232" font-weight="700" align="middle" anchor="middle" family="微软雅黑" size="17px" weight="700" font-style="" y="21.661934156378603" transform="rotate(0)"><tspan id="SvgjsTspan1775" dy="21" x="40"><tspan id="SvgjsTspan1776" style="text-decoration:;">Service</tspan></tspan></text></g></g><g id="SvgjsG1777" transform="translate(332,557.3333282470703)"><path id="SvgjsPath1778" d="M 0 0L 73 0L 73 40L 0 40Z" stroke="none" fill="none"></path><g id="SvgjsG1779"><text id="SvgjsText1780" font-family="微软雅黑" text-anchor="middle" font-size="16px" width="65" fill="#323232" font-weight="700" align="middle" anchor="middle" family="微软雅黑" size="16px" weight="700" font-style="" y="-2.4" transform="rotate(0)"><tspan id="SvgjsTspan1781" dy="20" x="36.5"><tspan id="SvgjsTspan1782" style="text-decoration:;">WALLET</tspan></tspan><tspan id="SvgjsTspan1783" dy="20" x="36.5"><tspan id="SvgjsTspan1784" style="text-decoration:;">微服务</tspan></tspan></text></g></g><g id="SvgjsG1785" transform="translate(415,531.7314763952184)"><path id="SvgjsPath1786" d="M 0 0L 80 0L 80 69.42386831275721L 0 69.42386831275721Z" stroke="#323232" stroke-width="2" fill-opacity="1" fill="#ffffff"></path><g id="SvgjsG1787"><text id="SvgjsText1788" font-family="微软雅黑" text-anchor="middle" font-size="17px" width="39" fill="#323232" font-weight="700" align="middle" anchor="middle" family="微软雅黑" size="17px" weight="700" font-style="" y="21.661934156378603" transform="rotate(0)"><tspan id="SvgjsTspan1789" dy="21" x="40"><tspan id="SvgjsTspan1790" style="text-decoration:;">Task</tspan></tspan></text></g></g><g id="SvgjsG1791" transform="translate(415,618.0154270125024)"><path id="SvgjsPath1792" d="M 0 0L 80 0L 80 69.42386831275721L 0 69.42386831275721Z" stroke="#323232" stroke-width="2" fill-opacity="1" fill="#ffffff"></path><g id="SvgjsG1793"><text id="SvgjsText1794" font-family="微软雅黑" text-anchor="middle" font-size="17px" width="24" fill="#323232" font-weight="700" align="middle" anchor="middle" family="微软雅黑" size="17px" weight="700" font-style="" y="21.661934156378603" transform="rotate(0)"><tspan id="SvgjsTspan1795" dy="21" x="40"><tspan id="SvgjsTspan1796" style="text-decoration:;">DB</tspan></tspan></text></g></g><g id="SvgjsG1797" transform="translate(594.5,438.3333282470703)"><path id="SvgjsPath1798" d="M 18 0Q 9 0 9 9L 9 119.5Q 9 128.5 0 128.5Q 9 128.5 9 137.5L 9 248Q 9 257 18 257" stroke="#323232" stroke-width="2" fill="none"></path><path id="SvgjsPath1799" d="M 103 257Q 112 257 112 248L 112 137.5Q 112 128.5 121 128.5Q 112 128.5 112 119.5L 112 9Q 112 0 103 0" stroke="#323232" stroke-width="2" fill="none"></path><path id="SvgjsPath1800" d="M 0 0L 121 0L 121 257L 0 257Z" stroke="none" fill="none"></path><g id="SvgjsG1801"><text id="SvgjsText1802" font-family="微软雅黑" text-anchor="middle" font-size="17px" width="0" fill="#323232" font-weight="700" align="middle" anchor="middle" family="微软雅黑" size="17px" weight="700" font-style="" y="115.45" transform="rotate(0)"></text></g></g><g id="SvgjsG1803" transform="translate(615,446.227361168881)"><path id="SvgjsPath1804" d="M 0 0L 80 0L 80 69.42386831275721L 0 69.42386831275721Z" stroke="#323232" stroke-width="2" fill-opacity="1" fill="#ffffff"></path><g id="SvgjsG1805"><text id="SvgjsText1806" font-family="微软雅黑" text-anchor="middle" font-size="17px" width="60" fill="#323232" font-weight="700" align="middle" anchor="middle" family="微软雅黑" size="17px" weight="700" font-style="" y="21.661934156378603" transform="rotate(0)"><tspan id="SvgjsTspan1807" dy="21" x="40"><tspan id="SvgjsTspan1808" style="text-decoration:;">Service</tspan></tspan></text></g></g><g id="SvgjsG1809" transform="translate(534,557.3333282470703)"><path id="SvgjsPath1810" d="M 0 0L 72 0L 72 40L 0 40Z" stroke="none" fill="none"></path><g id="SvgjsG1811"><text id="SvgjsText1812" font-family="微软雅黑" text-anchor="middle" font-size="16px" width="48" fill="#323232" font-weight="700" align="middle" anchor="middle" family="微软雅黑" size="16px" weight="700" font-style="" y="-2.4" transform="rotate(0)"><tspan id="SvgjsTspan1813" dy="20" x="36"><tspan id="SvgjsTspan1814" style="text-decoration:;">Trans</tspan></tspan><tspan id="SvgjsTspan1815" dy="20" x="36"><tspan id="SvgjsTspan1816" style="text-decoration:;">微服务</tspan></tspan></text></g></g><g id="SvgjsG1817" transform="translate(615,531.7314763952184)"><path id="SvgjsPath1818" d="M 0 0L 80 0L 80 69.42386831275721L 0 69.42386831275721Z" stroke="#323232" stroke-width="2" fill-opacity="1" fill="#ffffff"></path><g id="SvgjsG1819"><text id="SvgjsText1820" font-family="微软雅黑" text-anchor="middle" font-size="17px" width="39" fill="#323232" font-weight="700" align="middle" anchor="middle" family="微软雅黑" size="17px" weight="700" font-style="" y="21.661934156378603" transform="rotate(0)"><tspan id="SvgjsTspan1821" dy="21" x="40"><tspan id="SvgjsTspan1822" style="text-decoration:;">Task</tspan></tspan></text></g></g><g id="SvgjsG1823" transform="translate(615,618.0154270125024)"><path id="SvgjsPath1824" d="M 0 0L 80 0L 80 69.42386831275721L 0 69.42386831275721Z" stroke="#323232" stroke-width="2" fill-opacity="1" fill="#ffffff"></path><g id="SvgjsG1825"><text id="SvgjsText1826" font-family="微软雅黑" text-anchor="middle" font-size="17px" width="24" fill="#323232" font-weight="700" align="middle" anchor="middle" family="微软雅黑" size="17px" weight="700" font-style="" y="21.661934156378603" transform="rotate(0)"><tspan id="SvgjsTspan1827" dy="21" x="40"><tspan id="SvgjsTspan1828" style="text-decoration:;">DB</tspan></tspan></text></g></g><g id="SvgjsG1829" transform="translate(286.5,732.9553623155099)"><path id="SvgjsPath1830" d="M 0 0L 80 0L 80 69.42386831275721L 0 69.42386831275721Z" stroke="#323232" stroke-width="2" fill-opacity="1" fill="#ffffff"></path><g id="SvgjsG1831"><text id="SvgjsText1832" font-family="微软雅黑" text-anchor="middle" font-size="17px" width="25" fill="#323232" font-weight="700" align="middle" anchor="middle" family="微软雅黑" size="17px" weight="700" font-style="" y="21.661934156378603" transform="rotate(0)"><tspan id="SvgjsTspan1833" dy="21" x="40"><tspan id="SvgjsTspan1834" style="text-decoration:;">util</tspan></tspan></text></g></g><g id="SvgjsG1835" transform="translate(394.5,732.9553623155098)"><path id="SvgjsPath1836" d="M 0 0L 80 0L 80 69.42386831275721L 0 69.42386831275721Z" stroke="#323232" stroke-width="2" fill-opacity="1" fill="#ffffff"></path><g id="SvgjsG1837"><text id="SvgjsText1838" font-family="微软雅黑" text-anchor="middle" font-size="17px" width="48" fill="#323232" font-weight="700" align="middle" anchor="middle" family="微软雅黑" size="17px" weight="700" font-style="" y="21.661934156378603" transform="rotate(0)"><tspan id="SvgjsTspan1839" dy="21" x="40"><tspan id="SvgjsTspan1840" style="text-decoration:;">cache</tspan></tspan></text></g></g><g id="SvgjsG1841" transform="translate(497,732.9553623155098)"><path id="SvgjsPath1842" d="M 0 0L 80 0L 80 69.42386831275721L 0 69.42386831275721Z" stroke="#323232" stroke-width="2" fill-opacity="1" fill="#ffffff"></path><g id="SvgjsG1843"><text id="SvgjsText1844" font-family="微软雅黑" text-anchor="middle" font-size="17px" width="55" fill="#323232" font-weight="700" align="middle" anchor="middle" family="微软雅黑" size="17px" weight="700" font-style="" y="11.161934156378603" transform="rotate(0)"><tspan id="SvgjsTspan1845" dy="21" x="40"><tspan id="SvgjsTspan1846" style="text-decoration:;">concur</tspan></tspan><tspan id="SvgjsTspan1847" dy="21" x="40"><tspan id="SvgjsTspan1848" style="text-decoration:;">rent</tspan></tspan></text></g></g><g id="SvgjsG1849" transform="translate(594.5,732.9553623155098)"><path id="SvgjsPath1850" d="M 0 0L 80 0L 80 69.42386831275721L 0 69.42386831275721Z" stroke="#323232" stroke-width="2" fill-opacity="1" fill="#ffffff"></path><g id="SvgjsG1851"><text id="SvgjsText1852" font-family="微软雅黑" text-anchor="middle" font-size="17px" width="51" fill="#323232" font-weight="700" align="middle" anchor="middle" family="微软雅黑" size="17px" weight="700" font-style="" y="21.661934156378603" transform="rotate(0)"><tspan id="SvgjsTspan1853" dy="21" x="40"><tspan id="SvgjsTspan1854" style="text-decoration:;">logger</tspan></tspan></text></g></g><g id="SvgjsG1855" transform="translate(695,732.9553623155098)"><path id="SvgjsPath1856" d="M 0 0L 80 0L 80 69.42386831275721L 0 69.42386831275721Z" stroke="#323232" stroke-width="2" fill-opacity="1" fill="#ffffff"></path><g id="SvgjsG1857"><text id="SvgjsText1858" font-family="微软雅黑" text-anchor="middle" font-size="17px" width="50" fill="#323232" font-weight="700" align="middle" anchor="middle" family="微软雅黑" size="17px" weight="700" font-style="" y="21.661934156378603" transform="rotate(0)"><tspan id="SvgjsTspan1859" dy="21" x="40"><tspan id="SvgjsTspan1860" style="text-decoration:;">config</tspan></tspan></text></g></g><g id="SvgjsG1861" transform="translate(250.66666793823242,837.3333282470703)"><path id="SvgjsPath1862" d="M 18 0Q 9 0 9 8.866793644963606L 9 35.467174579854415Q 9 44.33396822481802 0 44.33396822481802Q 9 44.33396822481802 9 53.20076186978163L 9 79.80114280467244Q 9 88.66793644963604 18 88.66793644963604" stroke="#323232" stroke-width="2" fill="none"></path><path id="SvgjsPath1863" d="M 560.6666641235352 88.66793644963604Q 569.6666641235352 88.66793644963604 569.6666641235352 79.80114280467244L 569.6666641235352 53.20076186978163Q 569.6666641235352 44.33396822481802 578.6666641235352 44.33396822481802Q 569.6666641235352 44.33396822481802 569.6666641235352 35.467174579854415L 569.6666641235352 8.866793644963606Q 569.6666641235352 0 560.6666641235352 0" stroke="#323232" stroke-width="2" fill="none"></path><path id="SvgjsPath1864" d="M 0 0L 578.6666641235352 0L 578.6666641235352 88.66793644963604L 0 88.66793644963604Z" stroke="none" fill="none"></path><g id="SvgjsG1865"><text id="SvgjsText1866" font-family="微软雅黑" text-anchor="middle" font-size="13px" width="0" fill="#323232" font-weight="400" align="middle" anchor="middle" family="微软雅黑" size="13px" weight="400" font-style="" y="34.38396822481802" transform="rotate(0)"></text></g></g><g id="SvgjsG1867" transform="translate(128,830.3792306282671)"><path id="SvgjsPath1868" d="M 0 0L 131 0L 131 98.57486699053602L 0 98.57486699053602Z" stroke="none" fill="none"></path><g id="SvgjsG1869"><text id="SvgjsText1870" font-family="微软雅黑" text-anchor="middle" font-size="17px" width="68" fill="#323232" font-weight="700" align="middle" anchor="middle" family="微软雅黑" size="17px" weight="700" font-style="" y="36.237433495268014" transform="rotate(0)"><tspan id="SvgjsTspan1871" dy="21" x="65.5"><tspan id="SvgjsTspan1872" style="text-decoration:;">外部服务</tspan></tspan></text></g></g><g id="SvgjsG1873" transform="translate(289.5,846.9553623155099)"><path id="SvgjsPath1874" d="M 0 0L 80 0L 80 69.42386831275721L 0 69.42386831275721Z" stroke="#323232" stroke-width="2" fill-opacity="1" fill="#ffffff"></path><g id="SvgjsG1875"><text id="SvgjsText1876" font-family="微软雅黑" text-anchor="middle" font-size="17px" width="39" fill="#323232" font-weight="700" align="middle" anchor="middle" family="微软雅黑" size="17px" weight="700" font-style="" y="11.161934156378603" transform="rotate(0)"><tspan id="SvgjsTspan1877" dy="21" x="40"><tspan id="SvgjsTspan1878" style="text-decoration:;">front </tspan></tspan><tspan id="SvgjsTspan1879" dy="21" x="40"><tspan id="SvgjsTspan1880" style="text-decoration:;">SDK</tspan></tspan></text></g></g><g id="SvgjsG1881" transform="translate(641.5,263.5499954223633)"><path id="SvgjsPath1882" d="M 0 0L 294.5 0L 294.5 60.66667175292969L 0 60.66667175292969Z" stroke="none" fill="none"></path><g id="SvgjsG1883"><text id="SvgjsText1884" font-family="微软雅黑" text-anchor="middle" font-size="17px" width="115" fill="#323232" font-weight="700" align="middle" anchor="middle" family="微软雅黑" size="17px" weight="700" font-style="" y="17.283335876464843" transform="rotate(0)"><tspan id="SvgjsTspan1885" dy="21" x="147.5"><tspan id="SvgjsTspan1886" style="text-decoration:;">HTTP RESTful</tspan></tspan></text></g></g><g id="SvgjsG1887" transform="translate(314,146)"><path id="SvgjsPath1888" d="M 19.8 0L 40.2 0L 40.2 60L 60 60L 30 90L 0 60L 19.8 60L 19.8 0Z" stroke="#323232" stroke-width="2" fill-opacity="1" fill="#ffffff"></path><g id="SvgjsG1889"><text id="SvgjsText1890" font-family="微软雅黑" text-anchor="middle" font-size="13px" width="0" fill="#323232" font-weight="400" align="middle" anchor="middle" family="微软雅黑" size="13px" weight="400" font-style="" y="30.55" transform="rotate(0)"></text></g></g><g id="SvgjsG1891" transform="translate(573.5,146)"><path id="SvgjsPath1892" d="M 19.8 0L 40.2 0L 40.2 60L 60 60L 30 90L 0 60L 19.8 60L 19.8 0Z" stroke="#323232" stroke-width="2" fill-opacity="1" fill="#ffffff"></path><g id="SvgjsG1893"><text id="SvgjsText1894" font-family="微软雅黑" text-anchor="middle" font-size="13px" width="0" fill="#323232" font-weight="400" align="middle" anchor="middle" family="微软雅黑" size="13px" weight="400" font-style="" y="30.55" transform="rotate(0)"></text></g></g><g id="SvgjsG1895" transform="translate(215,344)"><path id="SvgjsPath1896" d="M 18 0Q 9 0 9 5.7L 9 22.8Q 9 28.5 0 28.5Q 9 28.5 9 34.2L 9 51.3Q 9 57 18 57" stroke="#323232" stroke-width="2" fill="none"></path><path id="SvgjsPath1897" d="M 472 57Q 481 57 481 51.3L 481 34.2Q 481 28.5 490 28.5Q 481 28.5 481 22.8L 481 5.7Q 481 0 472 0" stroke="#323232" stroke-width="2" fill="none"></path><path id="SvgjsPath1898" d="M 0 0L 490 0L 490 57L 0 57Z" stroke="none" fill="none"></path><g id="SvgjsG1899"><text id="SvgjsText1900" font-family="微软雅黑" text-anchor="middle" font-size="13px" width="0" fill="#323232" font-weight="400" align="middle" anchor="middle" family="微软雅黑" size="13px" weight="400" font-style="" y="18.55" transform="rotate(0)"></text></g></g><g id="SvgjsG1901" transform="translate(91.5,352.5)"><path id="SvgjsPath1902" d="M 0 0L 160 0L 160 40L 0 40Z" stroke="none" fill="none"></path><g id="SvgjsG1903"><text id="SvgjsText1904" font-family="微软雅黑" text-anchor="middle" font-size="17px" width="51" fill="#323232" font-weight="700" align="middle" anchor="middle" family="微软雅黑" size="17px" weight="700" font-style="" y="6.95" transform="rotate(0)"><tspan id="SvgjsTspan1905" dy="21" x="80"><tspan id="SvgjsTspan1906" style="text-decoration:;">聚合层</tspan></tspan></text></g></g><g id="SvgjsG1907" transform="translate(613,342.16666412353516)"><path id="SvgjsPath1908" d="M 0 0L 294.5 0L 294.5 60.66667175292969L 0 60.66667175292969Z" stroke="none" fill="none"></path><g id="SvgjsG1909"><text id="SvgjsText1910" font-family="微软雅黑" text-anchor="middle" font-size="17px" width="46" fill="#323232" font-weight="700" align="middle" anchor="middle" family="微软雅黑" size="17px" weight="700" font-style="" y="17.283335876464843" transform="rotate(0)"><tspan id="SvgjsTspan1911" dy="21" x="147.5"><tspan id="SvgjsTspan1912" style="text-decoration:;">gRPC</tspan></tspan></text></g></g><g id="SvgjsG1913" transform="translate(314,347.3333320617676)"><path id="SvgjsPath1914" d="M 0 0L 83.23699421965317 0L 83.23699421965317 50.333335876464865L 0 50.333335876464865Z" stroke="#323232" stroke-width="2" fill-opacity="1" fill="#ffffff"></path><g id="SvgjsG1915"><text id="SvgjsText1916" font-family="微软雅黑" text-anchor="middle" font-size="17px" width="60" fill="#323232" font-weight="700" align="middle" anchor="middle" family="微软雅黑" size="17px" weight="700" font-style="" y="12.116667938232432" transform="rotate(0)"><tspan id="SvgjsTspan1917" dy="21" x="42"><tspan id="SvgjsTspan1918" style="text-decoration:;">Service</tspan></tspan></text></g></g><g id="SvgjsG1919" transform="translate(500.76300578034693,347.3333320617676)"><path id="SvgjsPath1920" d="M 0 0L 83.23699421965317 0L 83.23699421965317 50.333335876464865L 0 50.333335876464865Z" stroke="#323232" stroke-width="2" fill-opacity="1" fill="#ffffff"></path><g id="SvgjsG1921"><text id="SvgjsText1922" font-family="微软雅黑" text-anchor="middle" font-size="17px" width="39" fill="#323232" font-weight="700" align="middle" anchor="middle" family="微软雅黑" size="17px" weight="700" font-style="" y="12.116667938232432" transform="rotate(0)"><tspan id="SvgjsTspan1923" dy="21" x="42"><tspan id="SvgjsTspan1924" style="text-decoration:;">Task</tspan></tspan></text></g></g><g id="SvgjsG1925" transform="translate(25,1043)"><path id="SvgjsPath1926" d="M 116 0Q 107 0 107 9L 107 88Q 107 97 94 97Q 107 97 107 106L 107 185Q 107 194 116 194" stroke="#323232" stroke-width="2" fill="none"></path><path id="SvgjsPath1927" d="M 0 0L 116 0L 116 194L 0 194Z" stroke="none" fill="none"></path><g id="SvgjsG1928"><text id="SvgjsText1929" font-family="微软雅黑" text-anchor="end" font-size="17px" width="85" fill="#323232" font-weight="700" align="middle" anchor="end" family="微软雅黑" size="17px" weight="700" font-style="" y="83.95" transform="rotate(0)"><tspan id="SvgjsTspan1930" dy="21" x="89"><tspan id="SvgjsTspan1931" style="text-decoration:;">区块链网络</tspan></tspan></text></g></g><g id="SvgjsG1932" transform="translate(208.5,1070)"><path id="SvgjsPath1933" d="M 0 0L 80 0L 80 48L 0 48Z" stroke="#323232" stroke-width="2" fill-opacity="1" fill="#ffffff"></path><g id="SvgjsG1934"><text id="SvgjsText1935" font-family="微软雅黑" text-anchor="middle" font-size="15px" width="60" fill="#323232" font-weight="700" align="middle" anchor="middle" family="微软雅黑" size="15px" weight="700" font-style="" y="2.75" transform="rotate(0)"><tspan id="SvgjsTspan1936" dy="18" x="40"><tspan id="SvgjsTspan1937" style="text-decoration:;">front</tspan></tspan><tspan id="SvgjsTspan1938" dy="18" x="40"><tspan id="SvgjsTspan1939" style="text-decoration:;">前置节点</tspan></tspan></text></g></g><g id="SvgjsG1940" transform="translate(203.5,1145)"><path id="SvgjsPath1941" d="M 10.799999999999999 49C -9 35 3.6 24.5 8.1 21C 6.300000000000001 3.5 28.8 0 37.8 7C 45 -3.5 67.5 0 67.5 10.5C 85.5 7 92.7 21 85.5 38.5C 91.8 52.5 85.5 70 64.8 63C 60.300000000000004 72.10000000000001 42.3 72.10000000000001 37.8 63C 28.8 70 10.799999999999999 66.5 10.799999999999999 49Z" stroke="#323232" stroke-width="2" fill-opacity="1" fill="#ffffff"></path><g id="SvgjsG1942"><text id="SvgjsText1943" font-family="微软雅黑" text-anchor="middle" font-size="13px" width="26" fill="#323232" font-weight="700" align="middle" anchor="middle" family="微软雅黑" size="13px" weight="700" font-style="" y="25.05" transform="rotate(0)"><tspan id="SvgjsTspan1944" dy="16" x="45"><tspan id="SvgjsTspan1945" style="text-decoration:;">节点</tspan></tspan></text></g></g><g id="SvgjsG1946" transform="translate(168,1070)"><path id="SvgjsPath1947" d="M 16.1 0L 0 14L 0 126L 16.1 140M 144.9 140L 161 126L 161 14L 144.9 0" stroke="#323232" stroke-width="2" fill="none"></path><path id="SvgjsPath1948" d="M 0 0L 161 0L 161 140L 0 140Z" stroke="none" fill="none"></path><g id="SvgjsG1949"><text id="SvgjsText1950" font-family="微软雅黑" text-anchor="middle" font-size="13px" width="0" fill="#323232" font-weight="700" align="middle" anchor="middle" family="微软雅黑" size="13px" weight="700" font-style="" y="60.05" transform="rotate(0)"></text></g></g><g id="SvgjsG1951" transform="translate(428.5,1070)"><path id="SvgjsPath1952" d="M 0 0L 80 0L 80 48L 0 48Z" stroke="#323232" stroke-width="2" fill-opacity="1" fill="#ffffff"></path><g id="SvgjsG1953"><text id="SvgjsText1954" font-family="微软雅黑" text-anchor="middle" font-size="15px" width="60" fill="#323232" font-weight="700" align="middle" anchor="middle" family="微软雅黑" size="15px" weight="700" font-style="" y="2.75" transform="rotate(0)"><tspan id="SvgjsTspan1955" dy="18" x="40"><tspan id="SvgjsTspan1956" style="text-decoration:;">front</tspan></tspan><tspan id="SvgjsTspan1957" dy="18" x="40"><tspan id="SvgjsTspan1958" style="text-decoration:;">前置节点</tspan></tspan></text></g></g><g id="SvgjsG1959" transform="translate(423.5,1145)"><path id="SvgjsPath1960" d="M 10.799999999999999 49C -9 35 3.6 24.5 8.1 21C 6.300000000000001 3.5 28.8 0 37.8 7C 45 -3.5 67.5 0 67.5 10.5C 85.5 7 92.7 21 85.5 38.5C 91.8 52.5 85.5 70 64.8 63C 60.300000000000004 72.10000000000001 42.3 72.10000000000001 37.8 63C 28.8 70 10.799999999999999 66.5 10.799999999999999 49Z" stroke="#323232" stroke-width="2" fill-opacity="1" fill="#ffffff"></path><g id="SvgjsG1961"><text id="SvgjsText1962" font-family="微软雅黑" text-anchor="middle" font-size="13px" width="26" fill="#323232" font-weight="700" align="middle" anchor="middle" family="微软雅黑" size="13px" weight="700" font-style="" y="25.05" transform="rotate(0)"><tspan id="SvgjsTspan1963" dy="16" x="45"><tspan id="SvgjsTspan1964" style="text-decoration:;">节点</tspan></tspan></text></g></g><g id="SvgjsG1965" transform="translate(388,1070)"><path id="SvgjsPath1966" d="M 16.1 0L 0 14L 0 126L 16.1 140M 144.9 140L 161 126L 161 14L 144.9 0" stroke="#323232" stroke-width="2" fill="none"></path><path id="SvgjsPath1967" d="M 0 0L 161 0L 161 140L 0 140Z" stroke="none" fill="none"></path><g id="SvgjsG1968"><text id="SvgjsText1969" font-family="微软雅黑" text-anchor="middle" font-size="13px" width="0" fill="#323232" font-weight="700" align="middle" anchor="middle" family="微软雅黑" size="13px" weight="700" font-style="" y="60.05" transform="rotate(0)"></text></g></g><g id="SvgjsG1970" transform="translate(658.5,1070)"><path id="SvgjsPath1971" d="M 0 0L 80 0L 80 48L 0 48Z" stroke="#323232" stroke-width="2" fill-opacity="1" fill="#ffffff"></path><g id="SvgjsG1972"><text id="SvgjsText1973" font-family="微软雅黑" text-anchor="middle" font-size="15px" width="60" fill="#323232" font-weight="700" align="middle" anchor="middle" family="微软雅黑" size="15px" weight="700" font-style="" y="2.75" transform="rotate(0)"><tspan id="SvgjsTspan1974" dy="18" x="40"><tspan id="SvgjsTspan1975" style="text-decoration:;">front</tspan></tspan><tspan id="SvgjsTspan1976" dy="18" x="40"><tspan id="SvgjsTspan1977" style="text-decoration:;">前置节点</tspan></tspan></text></g></g><g id="SvgjsG1978" transform="translate(653.5,1145)"><path id="SvgjsPath1979" d="M 10.799999999999999 49C -9 35 3.6 24.5 8.1 21C 6.300000000000001 3.5 28.8 0 37.8 7C 45 -3.5 67.5 0 67.5 10.5C 85.5 7 92.7 21 85.5 38.5C 91.8 52.5 85.5 70 64.8 63C 60.300000000000004 72.10000000000001 42.3 72.10000000000001 37.8 63C 28.8 70 10.799999999999999 66.5 10.799999999999999 49Z" stroke="#323232" stroke-width="2" fill-opacity="1" fill="#ffffff"></path><g id="SvgjsG1980"><text id="SvgjsText1981" font-family="微软雅黑" text-anchor="middle" font-size="13px" width="26" fill="#323232" font-weight="700" align="middle" anchor="middle" family="微软雅黑" size="13px" weight="700" font-style="" y="25.05" transform="rotate(0)"><tspan id="SvgjsTspan1982" dy="16" x="45"><tspan id="SvgjsTspan1983" style="text-decoration:;">节点</tspan></tspan></text></g></g><g id="SvgjsG1984" transform="translate(618,1070)"><path id="SvgjsPath1985" d="M 16.1 0L 0 14L 0 126L 16.1 140M 144.9 140L 161 126L 161 14L 144.9 0" stroke="#323232" stroke-width="2" fill="none"></path><path id="SvgjsPath1986" d="M 0 0L 161 0L 161 140L 0 140Z" stroke="none" fill="none"></path><g id="SvgjsG1987"><text id="SvgjsText1988" font-family="微软雅黑" text-anchor="middle" font-size="13px" width="0" fill="#323232" font-weight="700" align="middle" anchor="middle" family="微软雅黑" size="13px" weight="700" font-style="" y="60.05" transform="rotate(0)"></text></g></g><g id="SvgjsG1989" transform="translate(299.5,946)"><path id="SvgjsPath1990" d="M 19.8 0L 40.2 0L 40.2 60L 60 60L 30 90L 0 60L 19.8 60L 19.8 0Z" stroke="#323232" stroke-width="2" fill-opacity="1" fill="#ffffff"></path><g id="SvgjsG1991"><text id="SvgjsText1992" font-family="微软雅黑" text-anchor="middle" font-size="13px" width="0" fill="#323232" font-weight="400" align="middle" anchor="middle" family="微软雅黑" size="13px" weight="400" font-style="" y="30.55" transform="rotate(0)"></text></g></g></svg>